<svg width="164" height="9" viewBox="0 0 164 9" fill="none" xmlns="http://www.w3.org/2000/svg">
<path d="M163.96 5.55439C163.08 5.49448 162.14 5.52543 161.259 5.46552C142.745 4.44961 124.233 3.82718 105.634 3.93126C77.2356 3.95154 48.779 4.45616 20.5154 6.65569C15.2388 7.08322 10.0536 7.57121 4.86846 8.05922C4.0195 8.15066 3.32205 8.2117 2.53319 8.21222C1.44131 8.27356 0.529732 8.06235 0.219175 6.94261C-0.0913799 5.82288 0.692455 5.03534 1.57022 4.70175C2.71968 4.1561 3.96057 3.67091 5.26406 3.48836C8.93159 2.91064 12.7507 2.30254 16.4208 2.11831C58.0325 -0.393436 99.4739 -1.05867 141.032 2.27149C148.166 2.81123 155.241 3.8353 162.346 4.61721C162.924 4.73788 163.5 4.85855 163.986 4.91874C164.018 5.07006 163.989 5.31222 163.96 5.55439Z" fill="#F43F5E"/>
</svg>
